<?xml version="1.0" encoding="UTF-8"?>
<svg version="1.1" xmlns="http://www.w3.org/2000/svg" width="40" height="40">
<path d="M0 0 C4.93118269 3.48790971 8.5680539 7.03910339 10.5625 12.8125 C11.21618007 19.32243717 11.46933101 25.28904926 7.5625 30.8125 C3.59106263 35.42795424 -0.07287047 38.47464862 -6.27734375 39.09765625 C-13.77681652 39.31086747 -18.33689161 38.48046536 -24.125 33.5 C-29.10546536 27.71189161 -29.93586747 23.15181652 -29.72265625 15.65234375 C-29.09964862 9.44787047 -26.05295424 5.78393737 -21.4375 1.8125 C-15.20820182 -2.59358896 -7.02670166 -2.42740603 0 0 Z " fill="#F5B117" transform="translate(29.4375,1.1875)"/>
<path d="M0 0 C3 0.5 3 0.5 5.4375 2.0625 C7 4.5 7 4.5 6.9375 8.125 C6 11.5 6 11.5 3 13.5 C4.32 13.83 5.64 14.16 7 14.5 C7 15.82 7 17.14 7 18.5 C2.38 18.5 -2.24 18.5 -7 18.5 C-7 17.18 -7 15.86 -7 14.5 C-5.2421875 13.5234375 -3.484375 12.546875 -1.7265625 11.5703125 C0.1612614 10.49102726 0.1612614 10.49102726 2 8.5 C2 7.51 2 6.52 2 5.5 C-0.64 5.83 -3.28 6.16 -6 6.5 C-6.33 5.84 -6.66 5.18 -7 4.5 C-4.73943528 1.7177665 -3.5944274 0.59907123 0 0 Z " fill="#FDF4E0" transform="translate(24,10.5)"/>
<path d="M0 0 C0 5.94 0 11.88 0 18 C-1.32 18 -2.64 18 -4 18 C-4 14.04 -4 10.08 -4 6 C-4.66 6 -5.32 6 -6 6 C-6.33 4.68 -6.66 3.36 -7 2 C-4 0 -4 0 0 0 Z " fill="#FDF7E9" transform="translate(16,11)"/>
</svg>
