<?xml version="1.0" encoding="UTF-8"?>
<svg version="1.1" xmlns="http://www.w3.org/2000/svg" width="40" height="40">
<path d="M0 0 C4.93118269 3.48790971 8.5680539 7.03910339 10.5625 12.8125 C11.21618007 19.32243717 11.46933101 25.28904926 7.5625 30.8125 C3.59106263 35.42795424 -0.07287047 38.47464862 -6.27734375 39.09765625 C-13.77681652 39.31086747 -18.33689161 38.48046536 -24.125 33.5 C-29.10546536 27.71189161 -29.93586747 23.15181652 -29.72265625 15.65234375 C-29.09964862 9.44787047 -26.05295424 5.78393737 -21.4375 1.8125 C-15.20820182 -2.59358896 -7.02670166 -2.42740603 0 0 Z " fill="#EB5C1A" transform="translate(29.4375,1.1875)"/>
<path d="M0 0 C3.63 0 7.26 0 11 0 C11 0.99 11 1.98 11 3 C8.69 3 6.38 3 4 3 C4 3.99 4 4.98 4 6 C4.763125 5.938125 5.52625 5.87625 6.3125 5.8125 C9 6 9 6 10.875 7.0625 C12.69848531 10.20294693 11.8658284 12.5985313 11 16 C7.51131349 18.32579101 6.10281481 18.41865457 2 18 C-0.375 16.5 -0.375 16.5 -2 15 C-1.67 14.01 -1.34 13.02 -1 12 C-0.01 12 0.98 12 2 12 C2.33 12.66 2.66 13.32 3 14 C5.02463255 14.65213292 5.02463255 14.65213292 7 15 C7 13.35 7 11.7 7 10 C6.05125 10.020625 5.1025 10.04125 4.125 10.0625 C1 10 1 10 -1 9 C-0.67 6.03 -0.34 3.06 0 0 Z " fill="#FDF4F0" transform="translate(19,11)"/>
<path d="M0 0 C0 5.94 0 11.88 0 18 C-1.32 18 -2.64 18 -4 18 C-4 13.71 -4 9.42 -4 5 C-4.99 4.67 -5.98 4.34 -7 4 C-6.67 3.01 -6.34 2.02 -6 1 C-4 0 -4 0 0 0 Z " fill="#FCECE4" transform="translate(16,11)"/>
<path d="M0 0 C2.625 0.375 2.625 0.375 5 1 C4.67 2.65 4.34 4.3 4 6 C2.35 5.67 0.7 5.34 -1 5 C-1.33 4.01 -1.66 3.02 -2 2 C-1.34 1.34 -0.68 0.68 0 0 Z " fill="#EC672A" transform="translate(22,20)"/>
</svg>
