<?xml version="1.0" encoding="UTF-8"?>
<svg version="1.1" xmlns="http://www.w3.org/2000/svg" width="40" height="40">
<path d="M0 0 C4.93118269 3.48790971 8.5680539 7.03910339 10.5625 12.8125 C11.21618007 19.32243717 11.46933101 25.28904926 7.5625 30.8125 C3.59106263 35.42795424 -0.07287047 38.47464862 -6.27734375 39.09765625 C-13.77681652 39.31086747 -18.33689161 38.48046536 -24.125 33.5 C-29.10546536 27.71189161 -29.93586747 23.15181652 -29.72265625 15.65234375 C-29.09964862 9.44787047 -26.05295424 5.78393737 -21.4375 1.8125 C-15.20820182 -2.59358896 -7.02670166 -2.42740603 0 0 Z " fill="#CC3036" transform="translate(29.4375,1.1875)"/>
<path d="M0 0 C0.70125 0.00515625 1.4025 0.0103125 2.125 0.015625 C2.82625 0.01046875 3.5275 0.0053125 4.25 0 C6.125 0.265625 6.125 0.265625 8.125 2.265625 C8.15761177 4.25494275 8.18203081 6.24584691 8.1171875 8.234375 C8.04646759 10.41931141 8.04646759 10.41931141 8.8125 13.078125 C9.125 15.265625 9.125 15.265625 8.1875 17.078125 C4.93493428 18.95081435 1.78224742 18.80546817 -1.875 18.265625 C-3.9375 17.203125 -3.9375 17.203125 -4.875 15.265625 C-4.5625 11.953125 -4.5625 11.953125 -3.875 8.265625 C-3.895625 7.1725 -3.91625 6.079375 -3.9375 4.953125 C-3.86346941 1.76980972 -3.30101353 0.46764358 0 0 Z " fill="#FAEDEE" transform="translate(21.875,10.734375)"/>
<path d="M0 0 C0 5.94 0 11.88 0 18 C-1.32 18 -2.64 18 -4 18 C-4 14.04 -4 10.08 -4 6 C-4.99 5.67 -5.98 5.34 -7 5 C-7 4.01 -7 3.02 -7 2 C-4 0 -4 0 0 0 Z " fill="#F9EAEA" transform="translate(16,11)"/>
<path d="M0 0 C1.98 0 3.96 0 6 0 C6 1.32 6 2.64 6 4 C4.35 4 2.7 4 1 4 C0.67 2.68 0.34 1.36 0 0 Z " fill="#CD333A" transform="translate(21,22)"/>
<path d="M0 0 C1.65 0.33 3.3 0.66 5 1 C5 1.99 5 2.98 5 4 C3.35 4 1.7 4 0 4 C0 2.68 0 1.36 0 0 Z " fill="#CD363C" transform="translate(22,14)"/>
</svg>
