<svg width="17" height="12" viewBox="0 0 17 12" fill="none" xmlns="http://www.w3.org/2000/svg">
<path fill-rule="evenodd" clip-rule="evenodd" d="M16.6265 0.369674C16.8657 0.606179 17 0.926906 17 1.26132C17 1.59574 16.8657 1.91647 16.6265 2.15297L7.06474 11.6059C6.93838 11.7308 6.78836 11.8299 6.62324 11.8976C6.45813 11.9652 6.28116 12 6.10244 12C5.92372 12 5.74675 11.9652 5.58163 11.8976C5.41652 11.8299 5.2665 11.7308 5.14014 11.6059L0.389455 6.91011C0.267613 6.79377 0.170428 6.65461 0.10357 6.50074C0.0367117 6.34687 0.00152008 6.18138 4.81659e-05 6.01393C-0.00142375 5.84647 0.0308536 5.6804 0.0949967 5.5254C0.15914 5.37041 0.253864 5.2296 0.373642 5.11118C0.493421 4.99277 0.635854 4.89912 0.792633 4.83571C0.949411 4.7723 1.11739 4.74039 1.28678 4.74184C1.45617 4.7433 1.62356 4.77809 1.7792 4.84419C1.93484 4.91028 2.07561 5.00636 2.19329 5.12682L6.10201 8.99105L14.8218 0.369674C14.9403 0.252478 15.0809 0.159509 15.2358 0.0960783C15.3906 0.0326479 15.5566 0 15.7242 0C15.8917 0 16.0577 0.0326479 16.2125 0.0960783C16.3674 0.159509 16.508 0.252478 16.6265 0.369674Z" fill="white" style="fill:white;fill-opacity:1;"/>
</svg>
