<svg width="16" height="14" viewBox="0 0 16 14" fill="none" xmlns="http://www.w3.org/2000/svg">
<path d="M15.4688 7.125C15.4688 10.5077 12.6056 13.25 9.07366 13.25C8.26353 13.25 7.48858 13.1057 6.77531 12.8425C6.64489 12.7944 6.57969 12.7704 6.52784 12.7589C6.47683 12.7477 6.43992 12.7429 6.38762 12.741C6.33444 12.7391 6.2761 12.7449 6.15943 12.7564L2.30656 13.1379C1.93922 13.1742 1.75555 13.1924 1.64721 13.1291C1.55284 13.074 1.48857 12.9819 1.47146 12.8773C1.45182 12.7572 1.53958 12.6016 1.71512 12.2904L2.94573 10.1088C3.04707 9.92916 3.09775 9.83933 3.1207 9.75295C3.14336 9.66765 3.14884 9.60613 3.14159 9.51838C3.13425 9.42953 3.09355 9.31387 3.01214 9.08256C2.79582 8.46788 2.67857 7.80956 2.67857 7.125C2.67857 3.74226 5.54175 1 9.07366 1C12.6056 1 15.4688 3.74226 15.4688 7.125Z" stroke="black" style="stroke:black;stroke-opacity:1;" stroke-linecap="round" stroke-linejoin="round"/>
</svg>
